<?xml version="1.0" encoding="UTF-8" standalone="no"?>
<!DOCTYPE svg PUBLIC "-//W3C//DTD SVG 1.1//EN" "http://www.w3.org/Graphics/SVG/1.1/DTD/svg11.dtd">
<svg width="100%" height="100%" viewBox="0 0 2500 1123" version="1.1" xmlns="http://www.w3.org/2000/svg" xmlns:xlink="http://www.w3.org/1999/xlink" xml:space="preserve" xmlns:serif="http://www.serif.com/" style="fill-rule:evenodd;clip-rule:evenodd;stroke-linejoin:round;stroke-miterlimit:2;">
    <g transform="matrix(12.9698,0,0,12.9698,0,-701)">
        <g transform="matrix(1.08872,0,0,1.08677,-8.57957,-10.5036)">
            <path d="M33.91,76.875L8.504,63.401L64.692,63.401L65.301,61.656L132.426,61.656L133.422,64.111C133.746,64.009 184.252,64.009 184.252,64.009L160.186,76.448L169.297,112.81L146.043,122.146C146.043,122.146 144.988,120.99 143.527,119.65C143.283,120.177 142.998,120.603 142.877,120.787C140.361,124.478 137.418,126.082 134.578,126.244C133.26,126.346 132.142,126.082 131.351,125.818C131.269,125.777 131.208,125.757 131.128,125.716C131.291,126.572 131.366,127.443 131.351,128.314C131.33,129.064 131.189,129.835 131.066,130.343C130.945,130.829 130.154,133.163 130.154,133.163L127.496,133.083C125.633,133.016 123.789,132.688 122.017,132.108C121.367,131.903 120.73,131.659 120.109,131.378C117.857,130.728 115.443,129.024 113.88,127.847C113.046,127.212 112.233,126.549 111.444,125.859C111.038,125.859 110.551,125.92 110.022,126.002C109.313,126.143 108.764,126.326 108.745,126.326C108.116,126.549 107.993,126.711 107.993,126.752C107.973,126.752 107.973,126.793 107.973,126.813C107.973,126.915 108.014,127.016 108.034,127.118C108.237,127.991 108.929,128.925 109.091,129.128L111.89,132.577L107.913,134.585C103.53,136.778 99.856,136.858 96.996,135.966L96.042,136.372C94.276,137.081 92.552,137.284 91.334,137.347C90.238,137.386 89.427,137.306 89.204,137.285C85.856,137.062 81.046,135.256 77.516,133.775C73.721,132.193 66.112,128.377 66.112,128.377L67.613,126.875C66.639,126.369 65.624,125.82 64.651,125.313C61.668,123.711 52.719,118.497 52.719,118.497L58.299,116.204L57.792,115.817L56.818,115.046C53.411,116.95 50.093,119.009 46.875,121.216L46.388,121.54L24.493,113.645L31.068,88.078L13.232,76.875L33.91,76.875Z"/>
        </g>
        <g transform="matrix(1.08872,0,0,1.08677,-8.57957,-10.5036)">
            <path d="M66.113,62.792L131.676,62.792L132.893,65.754L133.887,65.146L180.092,65.146L158.887,75.86L167.979,112.121L146.348,120.807C146.348,120.807 107.832,78.275 46.227,120.28L25.834,112.934L32.368,87.569L17.149,78.011L35.33,78.011L35.533,76.449L12.765,64.537L65.504,64.537L66.113,62.792Z" style="fill:rgb(67,124,72);"/>
        </g>
        <g transform="matrix(1.08872,0,0,1.08677,-8.57957,-10.5036)">
            <path d="M134.273,66.485L132.244,67.703L130.783,64.132L96.348,64.132L96.348,62.793L131.676,62.793L132.893,65.755L133.887,65.147L180.092,65.147L158.887,75.86L167.979,112.121L146.348,120.807C146.348,120.807 127.983,100.536 96.348,101.793L96.348,100.453C125.08,99.338 143.121,115.672 146.692,119.244L166.397,111.33L157.325,75.129L174.471,66.484L134.273,66.484L134.273,66.485ZM96.348,64.131L67.066,64.131L66.457,65.876L18.204,65.876L36.974,75.697L36.507,79.349L21.795,79.349L33.909,86.958L27.435,112.079L46.043,118.776C65.158,105.891 82.061,101.02 96.347,100.452L96.347,101.792C82.163,102.38 65.301,107.271 46.226,120.278L25.833,112.932L32.367,87.567L17.148,78.009L35.33,78.009L35.533,76.447L12.765,64.537L65.504,64.537L66.113,62.792L96.348,62.792L96.348,64.131Z" style="fill:rgb(220,223,223);"/>
        </g>
        <g transform="matrix(1.08872,0,0,1.08677,-8.57957,-10.5036)">
            <path d="M45.841,116.707L32.57,111.918C32.57,111.918 45.902,102.564 58.767,99.418L64.692,95.665L90.077,93.697L113.839,93.9L136.261,98.465C136.261,98.465 155.052,106.744 161.036,110.721L146.163,116.91L132.081,108.144L137.052,101.611L129.931,107.556L112.48,105.587L116.05,97.267L111.87,102.624L82.933,103.374L79.767,96.659L80.376,100.817L54.179,110.315L45.841,116.707Z"/>
        </g>
        <g transform="matrix(1.08872,0,0,1.08677,-8.57957,-10.5036)">
            <path d="M146.713,103.133L146.713,95.909L147.078,97.43L148.457,97.817C148.031,94.306 147.383,92.114 146.713,90.755L146.713,67.479L162.742,67.479L163.107,69.001L154.402,73.627L156.006,79.573L155.803,79.573L153.205,81.5C154.605,82.028 155.621,82.981 156.31,83.935C156.773,84.568 157.155,85.257 157.447,85.985C157.689,86.553 157.771,86.959 157.771,86.959L164.304,111.126L162.275,109.706C158.988,107.373 152.211,104.898 146.713,103.133ZM146.713,67.479L146.713,90.754C146.104,89.536 145.475,88.968 144.967,88.745L146.713,95.909L146.713,103.133C145.763,102.825 144.809,102.527 143.852,102.24L143.852,79.898C144.055,80.487 144.36,80.771 144.561,80.913C144.704,80.994 144.805,81.035 144.887,81.075L144.096,75.252L143.852,75.231L143.852,67.48L146.713,67.48L146.713,67.479ZM143.852,67.479L143.852,75.23L142.817,75.088L143.77,79.674C143.791,79.756 143.831,79.816 143.852,79.897L143.852,102.239C140.686,101.264 138.434,100.655 138.393,100.655L137.866,100.514L137.946,101.143L136.323,100.311C135.411,99.844 133.483,99.317 131.169,98.768L131.169,86.392L134.315,86.392C132.489,84.911 131.838,83.104 131.616,82.029L131.169,82.029L131.169,71.457L132.692,71.457C133.057,69.874 134.071,68.88 135.208,68.291C135.898,67.928 136.646,67.688 137.419,67.581C138.069,67.479 138.495,67.479 138.495,67.479L143.852,67.479ZM131.168,71.457L131.168,82.029L128.023,82.029L128.043,82.252L128.469,86.392L131.168,86.392L131.168,98.77C129.255,98.322 127.334,97.909 125.406,97.532L125.406,91.749C125.508,91.77 125.629,91.79 125.771,91.83C126.419,91.932 126.216,91.912 126.705,92.013L126.34,88.056L125.406,88.056L125.406,71.457L131.168,71.457ZM125.406,71.456L125.406,88.056L124.107,88.056L124.453,91.607C124.98,91.668 125.06,91.688 125.406,91.749L125.406,97.532C124.898,97.43 124.39,97.329 123.904,97.227L123.904,80.547L124.838,80.547L124.797,78.559L123.904,78.518L123.904,71.456L125.406,71.456ZM123.904,71.457L123.904,78.519L122.951,78.499L123.193,80.548L123.904,80.548L123.904,97.227C119.865,96.457 116.437,95.868 116.375,95.868L115.99,95.807L116.01,96.131C116.01,96.131 113.698,95.584 109.903,95.117L109.903,86.96L112.948,86.96L112.339,77.89L109.903,76.206L109.903,71.457L123.904,71.457ZM87.458,89.578L88.454,89.578L88.454,86.27L87.459,85.133L87.459,81.338L89.184,81.338L89.184,78.416L87.459,78.416L87.459,71.456L93.182,71.456L93.324,71.598L107.304,71.598L107.142,71.456L109.902,71.456L109.902,76.205L109.416,75.86L109.416,78.6L106.859,78.498L107.609,89.374L107.507,89.435L108.825,89.435L108.684,86.959L109.901,86.959L109.901,95.116C105.48,94.565 101.022,94.362 96.569,94.508L96.569,94.752L87.458,95.137L87.458,89.578ZM86.607,84.139L86.465,89.577L87.459,89.577L87.459,95.137L82.67,95.34C81.391,95.299 80.377,95.015 79.606,94.569L79.525,95.604L70.454,97.309L63.697,98.688L63.13,98.77C50.671,100.211 32.043,110.418 32.002,110.438L30.176,111.432L36.791,86.27L39.266,86.27L29.77,80.223L38.759,80.223L40.626,73.953L27.172,67.601L65.118,67.622L60.208,80.73L56.19,78.275L53.999,78.275L53.35,81.075L60.29,81.075L56.638,90.896L51.261,90.896L50.611,93.757L56.597,91.951L64.348,71.456L87.46,71.456L87.46,78.416L86.73,78.416L86.629,81.338L87.461,81.338L87.461,85.133L86.607,84.139Z"/>
        </g>
        <g transform="matrix(1.08872,0,0,1.08677,-8.57957,-10.5036)">
            <path d="M70.699,85.681L70.557,77.138L70.009,76.996L68.994,80.263L68.994,72.35L75.244,72.35L76.198,91.546L78.958,91.424L78.694,94.854L71.288,96.254L70.842,90.328L68.995,90.328L68.995,85.681L70.699,85.681ZM68.994,80.263L67.31,85.681L68.994,85.681L68.994,90.328L64.003,90.328L65.099,91.282L63.009,97.877C50.367,99.379 31.577,109.647 31.577,109.647L37.482,87.163L42.311,87.163L32.835,81.116L39.43,81.116L41.338,74.703L44.219,74.703L31.293,68.514L63.86,68.514L60.715,77.544L56.86,75.231L51.909,75.231L50.407,81.968L59.031,81.968L56.86,88.259L49.291,88.259L48.053,95.524L57.265,92.683L64.956,72.35L68.993,72.35L68.993,80.263L68.994,80.263Z" style="fill:rgb(220,223,223);"/>
        </g>
        <g transform="matrix(1.08872,0,0,1.08677,-8.57957,-10.5036)">
            <path d="M92.837,72.35L95.535,74.826L95.535,79.757L90.077,79.757L90.077,76.185L85.288,76.185L85.815,77.281L85.551,90.471L89.792,90.471L89.792,84.546L87.316,82.233L95.676,82.233L95.676,93.9L82.669,94.448C77.88,94.306 78.286,90.329 78.286,90.329L79.22,76.185L76.481,72.35L92.837,72.35Z" style="fill:rgb(220,223,223);"/>
        </g>
        <g transform="matrix(1.08872,0,0,1.08677,-8.57957,-10.5036)">
            <path d="M95.008,72.492L107.631,72.492L107.631,76.185L105.682,76.185L106.676,88.969L105.012,90.328L110.391,90.328L110.065,87.852L114.489,87.852L115.038,94.995C115.038,94.995 107.671,93.209 96.389,93.635L98.825,90.592L98.825,76.59L95.008,72.492Z" style="fill:rgb(220,223,223);"/>
        </g>
        <g transform="matrix(1.08872,0,0,1.08677,-8.57957,-10.5036)">
            <path d="M131.939,72.35L133.156,79.898L127.515,79.898L126.968,76.327L121.773,76.063L122.443,81.826L127.109,81.826L127.515,85.804L122.99,85.804L123.539,91.425L122.18,92.277C123.844,92.277 129.444,93.353 129.444,93.353L128.37,87.854L134.518,87.854L136.729,99.542C133.299,97.776 116.54,94.996 116.54,94.996L114.774,76.47L109.661,72.351L131.939,72.351L131.939,72.35ZM162.377,68.373L153.348,73.162L154.85,78.682L147.159,78.682L145.942,74.116L148.114,72.757L142.776,72.757C141.153,72.899 141.782,74.421 141.782,74.421L142.919,79.9C143.446,81.807 144.806,81.97 144.806,81.97L150.447,81.97C155.56,81.706 156.922,87.165 156.922,87.165L162.785,108.979C156.617,104.596 138.617,99.788 138.617,99.788L136.041,87.977L143.853,87.977L146.349,98.144L151.806,99.665L149.777,89.783C148.56,85.806 145.355,85.948 145.355,85.948L141.376,85.806C135.593,85.684 134.64,80.307 134.64,80.307L133.564,74.118C132.468,68.335 138.496,68.376 138.496,68.376L162.377,68.376L162.377,68.373Z" style="fill:rgb(220,223,223);"/>
        </g>
        <g transform="matrix(1.08872,0,0,1.08677,-8.57957,-10.5036)">
            <path d="M147.666,78.011L146.713,74.419L150.445,72.085L142.756,72.085C141.619,72.187 141.092,72.836 141.01,73.566C140.969,73.871 141.01,74.155 141.051,74.337C141.092,74.458 141.112,74.56 141.131,74.601L142.268,80.059C142.573,81.154 143.141,81.824 143.69,82.19C143.954,82.372 144.196,82.474 144.379,82.534C144.582,82.616 144.785,82.636 144.785,82.636L150.467,82.636C154.971,82.393 156.25,87.263 156.27,87.344L161.708,107.495C158.319,105.546 153.146,103.599 148.601,102.097C144.238,100.656 140.402,99.581 139.185,99.277L136.873,88.644L143.346,88.644L145.782,98.687L152.702,100.595L150.429,89.617C149.111,85.356 145.7,85.274 145.357,85.274L141.4,85.132C136.185,85.01 135.312,80.181 135.312,80.181L134.966,78.274L134.966,70.38C135.271,70.075 135.595,69.852 135.941,69.67C137.138,69.041 138.478,69.041 138.498,69.041L159.703,69.041L152.56,72.815L153.96,78.01L147.666,78.01L147.666,78.011ZM134.963,98.182C135.287,98.262 135.572,98.364 135.836,98.446L134.963,93.88L134.963,98.182ZM134.963,78.275L134.213,73.993C133.887,72.207 134.293,71.091 134.963,70.381L134.963,78.275ZM134.963,93.879L133.949,88.522L129.179,88.522L130.294,94.204L129.321,94.021C129.28,94.001 123.76,92.946 122.178,92.946L119.844,92.946L122.826,91.079L122.258,85.134L126.764,85.134L126.5,82.496L121.854,82.496L121,75.353L127.535,75.678L128.082,79.229L132.363,79.229L131.349,73.02L112.923,73.02L112.923,74.116L115.4,76.125L117.144,94.408C118.402,94.631 121.79,95.22 125.464,95.95C128.853,96.62 132.546,97.431 134.96,98.183L134.96,93.879L134.963,93.879ZM112.926,93.899L112.926,88.522L113.881,88.522L114.307,94.143C113.941,94.082 113.494,94.001 112.926,93.899ZM112.926,73.019L112.926,74.115L111.567,73.019L112.926,73.019ZM112.926,88.522L110.836,88.522L111.141,90.998L103.125,90.998L105.986,88.664L104.972,75.515L106.96,75.515L106.96,73.161L96.55,73.161L99.491,76.327L99.491,90.836L97.807,92.926C104.768,92.764 110.104,93.434 112.924,93.9L112.924,88.522L112.926,88.522ZM78.004,94.305L78.004,92.134L78.227,92.113L78.064,94.284L78.004,94.305ZM78.004,73.323L79.911,76.002L78.937,90.389L78.937,90.632C78.937,90.795 78.958,91.038 79.018,91.302L79.099,91.789L79.424,92.317C79.85,92.986 80.742,93.717 82.691,93.778L95.008,93.25L95.008,82.901L89.022,82.901L90.463,84.26L90.463,91.139L84.862,91.139L85.146,77.422L84.193,75.515L90.747,75.515L90.747,79.086L94.866,79.086L94.866,75.129L92.573,73.019L78.004,73.019L78.004,73.323ZM78.004,73.019L78.004,73.323L77.781,73.019L78.004,73.019ZM78.004,92.134L75.569,92.256L74.615,73.019L68.893,73.019L68.893,78.376L69.562,76.205L71.226,76.611L71.368,86.351L68.892,86.351L68.892,89.659L71.449,89.659L71.895,95.442L78.003,94.306L78.003,92.134L78.004,92.134ZM68.893,73.019L68.893,78.376L66.397,86.351L68.893,86.351L68.893,89.659L62.217,89.659L64.327,91.505L62.5,97.268C56.149,98.1 48.438,101.002 42.29,103.702C38.008,105.589 34.437,107.374 32.611,108.348L38.008,87.832L44.603,87.832L35.127,81.786L39.936,81.786L41.823,75.373L44.583,75.373L44.827,74.237L34.255,69.184L62.928,69.184L60.35,76.55L57.043,74.561L51.36,74.561L49.574,82.637L58.096,82.637L56.392,87.588L48.722,87.588L47.221,96.496L57.793,93.209L65.423,73.019L68.893,73.019Z" style="fill:white;"/>
        </g>
        <g transform="matrix(1.08872,0,0,1.08677,-8.57957,-10.5036)">
            <path d="M128.896,123.059L129.037,123.243L129.322,123.587L129.484,124.013C130.093,125.74 130.255,127.201 130.234,128.296C130.214,128.944 130.072,129.614 129.97,130.062C129.849,130.548 129.363,132.029 129.363,132.029L127.537,131.949C125.776,131.899 124.032,131.591 122.361,131.035C121.724,130.839 121.101,130.602 120.494,130.326C118.467,129.758 116.152,128.154 114.57,126.957C113.433,126.084 112.459,125.252 111.89,124.766C111.302,124.705 110.552,124.766 109.822,124.909C109.01,125.05 108.4,125.274 108.381,125.274C106.758,125.821 106.736,126.573 106.94,127.383C107.204,128.5 108.036,129.615 108.219,129.838L110.125,132.193L107.406,133.572C103.064,135.763 99.554,135.683 96.977,134.769L95.617,135.318C94.014,135.966 92.431,136.17 91.295,136.211C90.26,136.272 89.509,136.19 89.306,136.17C86.202,135.967 81.535,134.221 77.963,132.74C74.189,131.158 68.02,128.072 68.02,128.072L69.522,126.572C68.063,125.857 66.622,125.105 65.2,124.318C62.217,122.716 55.257,118.677 55.257,118.677L60.513,116.527C59.843,116 59.154,115.451 58.484,114.923C55.988,112.954 50.063,108.187 50.063,108.187L54.385,106.787C58.098,105.59 65.485,103.926 71.308,102.687L69.401,101.978L75.61,99.705C78.816,98.568 84.599,98.041 89.246,97.777C90.2,97.716 91.112,97.675 91.985,97.634C92.127,97.532 92.269,97.452 92.391,97.37C92.763,97.167 93.15,96.991 93.547,96.843C94.277,96.559 95.535,96.194 95.535,96.194L96.043,96.418C96.834,96.397 98.376,96.357 101.298,96.234C109.597,95.89 115.806,98.711 115.948,98.771C120.616,100.718 124.208,101.511 126.561,101.835C127.698,101.997 128.873,101.997 129.788,101.956C130.722,101.915 133.825,101.571 133.825,101.571L132.79,104.471C138.878,105.731 141.009,108.409 141.497,109.241C143.343,112.204 143.587,114.862 143.241,116.872C143.111,117.683 142.858,118.469 142.491,119.204C142.266,119.671 142.065,119.975 141.964,120.138C139.589,123.609 136.931,124.988 134.517,125.13C133.573,125.197 132.626,125.065 131.736,124.743C131.25,124.581 130.662,124.216 130.295,123.993C130.094,123.871 129.465,123.445 128.896,123.059Z" style="fill:rgb(220,223,223);"/>
        </g>
        <g transform="matrix(1.08872,0,0,1.08677,-8.57957,-10.5036)">
            <path d="M131.027,118.859C131.006,118.838 130.945,118.818 130.884,118.797C130.7,118.736 130.417,118.697 130.113,118.676C129.504,118.615 128.836,118.615 128.572,118.656L128.388,118.676L128.204,118.635C126.946,118.412 126.378,119.387 126.196,119.731C126.114,120.442 126.52,121.417 127.048,122.309C127.575,123.221 128.144,123.913 128.185,123.973L128.347,124.155L128.429,124.38C128.997,125.982 129.138,127.302 129.118,128.275C129.098,128.802 128.975,129.371 128.874,129.818C128.772,130.244 128.571,130.873 128.571,130.873L127.555,130.853C125.907,130.78 124.275,130.486 122.705,129.98C121.791,129.697 121.162,129.412 120.898,129.271C119.052,128.802 116.861,127.302 115.236,126.064C114.265,125.316 113.318,124.537 112.396,123.73C111.544,123.548 110.49,123.648 109.617,123.812C108.724,123.974 108.033,124.216 108.013,124.216C105.781,124.968 105.536,126.347 105.841,127.646C106.165,129.027 107.14,130.285 107.343,130.529L108.398,131.828L106.898,132.578C102.656,134.709 99.39,134.525 97.117,133.633C96.744,133.496 96.384,133.326 96.041,133.125L96,133.979L95.209,134.284C93.768,134.872 92.307,135.054 91.252,135.116C90.649,135.134 90.046,135.113 89.446,135.054C86.544,134.892 82.019,133.228 78.386,131.706C74.653,130.144 69.904,127.77 69.904,127.77L71.446,126.227C69.782,125.497 67.631,124.381 65.723,123.346C62.761,121.742 57.769,118.84 57.769,118.84L62.72,116.811C61.664,116.02 60.387,115.006 59.169,114.051C56.693,112.082 52.351,108.613 52.351,108.613L54.725,107.863C59.27,106.381 69.356,104.211 75.281,102.992L72.602,101.998L75.991,100.76C79.014,99.664 84.616,99.156 89.303,98.893C90.399,98.832 91.454,98.772 92.449,98.731C92.489,98.69 92.51,98.651 92.551,98.629C92.673,98.527 92.815,98.426 92.957,98.346C93.221,98.184 93.586,98.022 93.951,97.879C94.452,97.693 94.96,97.523 95.473,97.371L95.818,97.533C96.548,97.533 98.091,97.494 101.338,97.351C109.393,97.027 115.4,99.724 115.502,99.765C120.27,101.775 123.943,102.607 126.418,102.951C127.615,103.113 128.873,103.113 129.828,103.074C130.801,103.033 132.182,102.871 132.182,102.871L131.289,105.346L132.363,105.53C138.371,106.706 140.217,109.262 140.541,109.811C142.246,112.549 142.449,114.924 142.145,116.69C142.011,117.39 141.794,118.071 141.497,118.719C141.294,119.125 141.13,119.367 141.05,119.49C138.818,122.756 136.464,123.892 134.435,124.013C133.643,124.064 132.849,123.954 132.101,123.689C131.757,123.568 131.269,123.285 130.884,123.06C130.487,122.803 130.094,122.539 129.706,122.269L130.944,121.132C131.391,120.726 131.452,120.261 131.391,119.874C131.37,119.671 131.309,119.489 131.268,119.366C131.229,119.305 131.207,119.245 131.188,119.204L131.065,118.981L131.027,118.859Z" style="fill:rgb(42,59,55);"/>
        </g>
        <g transform="matrix(1.08872,0,0,1.08677,-8.57957,-10.5036)">
            <path d="M129.504,106.379L130.195,104.451C130.195,104.451 124.715,105.121 114.935,100.98C114.935,100.98 109.13,98.363 101.4,98.687C93.669,99.013 95.373,98.789 95.373,98.789L98.093,99.906C98.093,99.906 82.041,99.986 76.461,102.015L80.093,103.396C80.093,103.396 61.749,106.988 55.134,109.119C55.134,109.119 64.671,116.789 65.483,117.133L60.796,119.063C60.796,119.063 71.266,125.129 73.884,125.698L72.159,127.403C72.159,127.403 84.334,133.469 89.569,133.714C89.569,133.714 92.187,134.058 94.703,133.044L94.825,130.425C94.825,130.425 98.437,135.337 106.31,131.38C106.31,131.38 101.197,125.089 107.589,122.958C107.589,122.958 110.775,121.823 113.048,122.513C113.048,122.513 118.282,127.322 121.347,128.011C121.347,128.011 123.964,129.37 127.617,129.513C127.617,129.513 128.185,127.687 127.172,124.825C127.172,124.825 124.453,121.639 124.899,119.366C124.899,119.366 125.833,116.85 128.45,117.317C128.45,117.317 131.981,116.993 132.305,118.473C132.305,118.473 133.563,120.524 131.838,122.106C131.838,122.106 135.856,124.764 139.955,118.717C139.955,118.717 142.471,115.43 139.406,110.518C139.406,110.518 138.047,108.002 132.123,106.846L129.504,106.379Z"/>
        </g>
        <g transform="matrix(1.08872,0,0,1.08677,-8.57957,-10.5036)">
            <path d="M80.885,104.533C80.885,104.533 67.208,106.664 62.074,110.053C62.074,110.053 65.605,113.258 69.805,114.983C69.805,114.983 85.896,108.754 89.772,108.774L91.822,108.672C91.822,108.672 72.321,114.639 68.426,118.961C68.426,118.961 71.612,122.268 76.847,123.201C76.847,123.201 88.373,114.801 99.756,115.064L102.598,114.962C102.598,114.962 87.014,116.503 79.688,126.407C79.688,126.407 82.306,128.8 90.26,130.647C90.26,130.647 92.005,119.487 111.019,119.77L80.885,104.533Z" style="fill:rgb(220,223,223);"/>
        </g>
        <g transform="matrix(1.08872,0,0,1.08677,-8.57957,-10.5036)">
            <path d="M109.984,120.787C109.984,120.787 101.095,119.062 95.962,127.93C95.962,127.93 96.632,129.289 100.731,129.877C100.73,129.877 100.061,122.125 109.984,120.787Z" style="fill:rgb(220,223,223);"/>
        </g>
        <g transform="matrix(1.08872,0,0,1.08677,-8.57957,-10.5036)">
            <path d="M111.789,112.305L113.393,111.311C113.393,111.311 112.481,110.702 111.344,109.87C110.553,109.282 109.598,109.099 109.598,109.099C109.598,109.099 109.903,108.794 110.289,108.714C110.957,108.571 111.424,108.653 111.424,108.653C111.424,108.653 109.233,105.751 105.053,105.284C100.873,104.817 103.977,108.47 105.276,109.546C106.555,110.601 111.344,112.671 111.344,112.671L111.789,112.305Z" style="fill:rgb(203,205,211);"/>
        </g>
        <g transform="matrix(1.08872,0,0,1.08677,-8.57957,-10.5036)">
            <path d="M116.518,109.768L117.309,110.053C117.309,110.053 117.471,110.682 117.067,110.844C116.68,111.026 116.397,111.188 116.397,111.188C116.397,111.188 116.842,110.457 116.518,109.768Z" style="fill:white;"/>
        </g>
        <g transform="matrix(1.08872,0,0,1.08677,-8.57957,-10.5036)">
            <path d="M127.455,105.467C127.455,105.467 123.58,106.338 116.904,103.274C116.904,103.274 109.781,100.129 105.297,100.049C102.801,100.008 99.676,99.947 99.676,99.947L102.516,100.961C102.516,100.961 91.843,100.799 81.697,102.361L87.501,103.64C87.501,103.64 74.393,104.736 66.641,110.863C66.641,110.863 76.321,107.697 80.196,107.84C80.196,107.84 74.393,109.647 72.221,111.676C72.221,111.676 84.193,107.272 94.887,108.104C94.887,108.104 83.158,110.458 75.488,118.981C75.488,118.981 82.002,113.643 92.593,112.772C92.593,112.772 87.358,114.354 86.546,116.059C86.546,116.059 91.903,113.34 102.597,114.963L104.525,115.309C104.525,115.309 92.938,116.18 89.834,121.071C89.834,121.071 96.895,116.546 104.748,117.012C104.748,117.012 99.857,117.803 97.687,120.299C97.687,120.299 101.683,118.149 107.488,118.393C107.488,118.393 109.191,118.737 111.019,119.772L111.81,119.772C111.81,119.772 109.191,118.292 108.746,117.723C108.746,117.723 117.857,118.616 120.494,112.407C120.494,112.407 118.769,114.335 116.599,114.436C116.599,114.436 119.46,113.299 119.236,111.473C119.236,111.473 119.318,110.721 120.007,110.032L119.359,110.114L118.568,110.114C118.568,110.114 119.033,112.509 116.984,113.077C116.984,113.077 115.422,113.747 113.474,113.056C110.47,111.982 109.72,109.911 109.72,109.911C109.72,109.911 108.421,109.565 107.853,109.464C106.96,109.282 104.261,108.53 104.261,108.53C104.261,108.53 106.939,108.653 107.913,108.714C108.765,108.775 109.8,108.612 109.333,108.368C108.888,108.145 107.487,106.704 107.183,106.542C106.837,106.38 106.351,105.751 105.357,105.507C103.693,105.142 101.38,105.163 101.38,105.163L99.208,105.386C99.208,105.386 99.431,104.697 102.394,104.493C104.667,104.309 106.271,104.27 107.183,104.391C108.097,104.493 108.888,104.614 110.714,105.182C112.54,105.77 113.21,106.338 113.21,106.338C113.21,106.338 113.554,106.684 113.331,105.77C113.108,104.858 112.54,104.737 112.54,104.737C112.54,104.737 114.122,104.858 114.69,105.649C115.258,106.461 116.395,107.719 117.532,107.942C118.667,108.186 121.528,108.754 123.802,107.962C126.076,107.17 127.109,106.033 127.455,105.467Z" style="fill:white;"/>
        </g>
        <g transform="matrix(1.08872,0,0,1.08677,-8.57957,-10.5036)">
            <path d="M133.441,121.598C133.441,121.598 141.314,120.321 137.966,112C137.966,112 136.159,109.26 131.027,108.732C131.027,108.732 127.048,108.367 126.642,108.427C126.642,108.427 125.283,109.564 123.052,110.173C123.052,110.173 120.697,117.925 112.845,118.919C112.845,118.919 116.8,126.446 126.704,128.355C126.704,128.355 127.374,124.703 123.903,121.496L123.76,119.488L123.295,119C123.295,119 122.443,119.812 123.053,121.355C123.053,121.355 125.426,124.865 125.547,125.595C125.649,126.345 125.711,126.732 125.711,126.732C125.711,126.732 122.037,127.117 116.254,120.38C116.254,120.38 121.104,115.591 126.176,115.083C126.176,115.083 131.352,114.536 132.893,115.671C132.893,115.671 136.872,116.767 133.381,121.435L133.441,121.598Z" style="fill:rgb(220,223,223);"/>
        </g>
        <g transform="matrix(1.08872,0,0,1.08677,-8.57957,-10.5036)">
            <path d="M127.436,110.6L124.715,110.58C124.94,111.432 123.619,112.346 123.619,112.346C124.594,112.184 125.791,111.959 126.42,111.797C127.131,111.594 128.004,110.986 127.436,110.6Z"/>
        </g>
        <g transform="matrix(1.08872,0,0,1.08677,-8.57957,-10.5036)">
            <path d="M112.195,107.738L113.088,108.57C113.088,108.57 113.027,108.427 113.008,109.119C113.008,109.787 112.947,110.478 113.231,111.006C113.536,111.533 113.758,112.08 114.835,112.223C115.89,112.385 116.417,112.467 117.271,112.162C118.101,111.857 118.853,111.553 118.853,111.553L118.63,111.248C118.63,111.248 116.925,111.98 116.398,111.98C115.849,111.98 114.591,111.98 114.105,111.412C113.781,111.025 113.597,110.031 113.597,109.586C113.597,109.139 113.781,108.428 113.781,108.428L112.195,107.738ZM71.307,67.784C71.412,67.773 71.511,67.73 71.591,67.662C71.713,67.581 71.753,67.479 71.753,67.317C71.753,67.155 71.713,67.033 71.591,66.952C71.504,66.9 71.407,66.866 71.307,66.851L71.307,66.059L71.45,66.059C71.856,66.059 72.18,66.181 72.404,66.404C72.647,66.627 72.769,66.912 72.769,67.297C72.769,67.662 72.647,67.966 72.404,68.19C72.181,68.394 71.856,68.515 71.45,68.515L71.307,68.515L71.307,67.784ZM70.881,66.831L70.881,67.784L71.307,67.784L71.307,68.514L70.881,68.514L70.881,69.143L71.266,69.143L71.266,69.914L69.48,69.914L69.48,69.143L69.866,69.143L69.866,66.831L69.48,66.831L69.48,66.06L71.306,66.06L71.306,66.852C71.265,66.852 71.205,66.832 71.144,66.832L70.881,66.832L70.881,66.831ZM74.554,69.915L74.554,69.143L74.939,69.143L74.939,66.831L74.554,66.831L74.554,66.059L76.339,66.059L76.339,66.831L75.934,66.831L75.934,67.54L77.07,67.54L77.07,66.831L76.665,66.831L76.665,66.059L78.47,66.059L78.47,66.831L78.085,66.831L78.085,69.143L78.47,69.143L78.47,69.915L76.665,69.915L76.665,69.143L77.07,69.143L77.07,68.312L75.934,68.312L75.934,69.143L76.339,69.143L76.339,69.915L74.554,69.915ZM80.276,69.915L80.276,69.143L80.662,69.143L80.662,66.831L80.276,66.831L80.276,66.059L82.083,66.059L82.083,66.831L81.676,66.831L81.676,69.143L82.083,69.143L82.083,69.915L80.276,69.915ZM83.888,69.915L83.888,69.143L84.274,69.143L84.274,66.831L83.888,66.831L83.888,66.059L85.674,66.059L85.674,66.831L85.289,66.831L85.289,69.143L86.263,69.143L86.506,68.393L87.156,68.393L87.156,69.915L83.888,69.915ZM90.808,66.08L91.599,66.08L92.492,69.143L92.838,69.143L92.838,69.914L91.153,69.914L91.153,69.143L91.498,69.143L91.336,68.636L90.809,68.636L90.809,67.946L91.174,67.946L90.809,66.749L90.809,66.08L90.808,66.08ZM88.779,69.915L88.779,69.144L89.124,69.144L90.078,66.06L90.808,66.081L90.808,66.75L90.808,66.729L90.443,67.947L90.808,67.947L90.808,68.637L90.28,68.637L90.138,69.144L90.483,69.144L90.483,69.915L88.779,69.915ZM96.652,66.08C96.774,66.08 96.895,66.1 96.998,66.12C97.2,66.141 97.342,66.202 97.463,66.263C97.809,66.446 98.053,66.669 98.215,66.952C98.377,67.236 98.457,67.581 98.457,68.007C98.457,68.413 98.377,68.758 98.215,69.042C98.053,69.326 97.809,69.549 97.463,69.732C97.319,69.809 97.161,69.857 96.998,69.874C96.895,69.894 96.774,69.915 96.652,69.915L96.652,69.103C96.835,69.042 96.977,68.981 97.098,68.859C97.301,68.656 97.403,68.372 97.403,68.006C97.403,67.621 97.301,67.337 97.098,67.133C96.977,67.009 96.822,66.924 96.652,66.89L96.652,66.08ZM94.501,69.917L94.501,69.144L94.886,69.144L94.886,66.832L94.501,66.832L94.501,66.061L96.327,66.061C96.449,66.061 96.571,66.082 96.652,66.082L96.652,66.894C96.514,66.851 96.37,66.83 96.226,66.833L95.921,66.833L95.921,69.145L96.226,69.145C96.388,69.145 96.53,69.145 96.652,69.105L96.652,69.917L94.501,69.917ZM100.285,69.915L100.285,69.143L100.67,69.143L100.67,66.831L100.285,66.831L100.285,66.059L103.734,66.059L103.734,67.459L103.064,67.459L102.82,66.831L101.684,66.831L101.684,67.459L102.436,67.459L102.436,68.332L101.684,68.332L101.684,69.143L102.82,69.143L103.064,68.393L103.734,68.393L103.734,69.915L100.285,69.915ZM105.662,69.915L105.662,69.143L106.047,69.143L106.047,66.831L105.662,66.831L105.662,66.059L107.447,66.059L107.447,66.831L107.062,66.831L107.062,69.143L108.035,69.143L108.279,68.393L108.93,68.393L108.93,69.915L105.662,69.915ZM112.521,67.784C112.624,67.768 112.722,67.726 112.804,67.662C112.906,67.581 112.947,67.479 112.947,67.317C112.947,67.155 112.906,67.033 112.804,66.952C112.722,66.912 112.642,66.871 112.521,66.851L112.521,66.059L112.662,66.059C113.049,66.059 113.373,66.181 113.615,66.404C113.84,66.627 113.961,66.912 113.961,67.297C113.961,67.662 113.84,67.966 113.615,68.19C113.346,68.409 113.008,68.524 112.662,68.515L112.521,68.515L112.521,67.784ZM112.074,66.831L112.074,67.784L112.522,67.784L112.522,68.514L112.075,68.514L112.075,69.143L112.481,69.143L112.481,69.914L110.674,69.914L110.674,69.143L111.059,69.143L111.059,66.831L110.674,66.831L110.674,66.06L112.522,66.06L112.522,66.852C112.46,66.852 112.399,66.832 112.338,66.832L112.074,66.832L112.074,66.831ZM115.746,69.915L115.746,69.143L116.133,69.143L116.133,66.831L115.746,66.831L115.746,66.059L117.553,66.059L117.553,66.831L117.146,66.831L117.146,67.54L118.283,67.54L118.283,66.831L117.877,66.831L117.877,66.059L119.662,66.059L119.662,66.831L119.277,66.831L119.277,69.143L119.662,69.143L119.662,69.915L117.877,69.915L117.877,69.143L118.283,69.143L118.283,68.312L117.146,68.312L117.146,69.143L117.553,69.143L117.553,69.915L115.746,69.915ZM121.469,69.915L121.469,69.143L121.875,69.143L121.875,66.831L121.469,66.831L121.469,66.059L123.275,66.059L123.275,66.831L122.869,66.831L122.869,69.143L123.275,69.143L123.275,69.915L121.469,69.915ZM126.988,66.08L127.617,66.08L128.672,69.143L129.018,69.143L129.018,69.914L127.334,69.914L127.334,69.143L127.658,69.143L127.515,68.636L126.988,68.636L126.988,67.946L127.353,67.946L126.988,66.749L126.988,66.08ZM124.959,69.915L124.959,69.144L125.283,69.144L126.217,66.081L126.988,66.081L126.988,66.75L126.988,66.729L126.623,67.947L126.988,67.947L126.988,68.637L126.461,68.637L126.318,69.144L126.642,69.144L126.642,69.915L124.959,69.915Z" style="fill:white;"/>
        </g>
    </g>
</svg>
