<?xml version="1.0" encoding="utf-8"?>
<!-- Generator: Adobe Illustrator 26.0.3, SVG Export Plug-In . SVG Version: 6.00 Build 0)  -->
<svg version="1.1" id="Layer_1" xmlns="http://www.w3.org/2000/svg" xmlns:xlink="http://www.w3.org/1999/xlink" x="0px" y="0px"
	 viewBox="0 0 1000.2 121.4" style="enable-background:new 0 0 1000.2 121.4;" xml:space="preserve">
<style type="text/css">
	.st0{fill:url(#SVGID_1_);}
</style>
<linearGradient id="SVGID_1_" gradientUnits="userSpaceOnUse" x1="503.77" y1="99.5065" x2="503.77" y2="-4.5549" gradientTransform="matrix(1 0 0 -1 -13.8567 109.3305)">
	<stop  offset="0" style="stop-color:#2E2F78"/>
	<stop  offset="0.1087" style="stop-color:#2E2F78"/>
	<stop  offset="1" style="stop-color:#692C82"/>
</linearGradient>
<path class="st0" d="M917.7,104.4l-0.8-1.4l-0.8-1.4l-0.8-1.4l-0.8-1.4l-0.8-1.4l-0.8-1.4l-0.8-1.4l-0.8-1.4l-0.8-1.4l-0.8-1.4
	l-0.8-1.4l-0.8-1.4l-0.8-1.4l-0.8-1.4l-0.8-1.4l-0.8-1.4l-0.8-1.4l-0.8-1.4l-0.8-1.4l-0.8-1.4l-0.8-1.4l-0.8-1.4l-0.8-1.4l-0.8-1.4
	l-0.8-1.4l-0.8-1.4l-0.8-1.4l-0.8-1.4l-0.8-1.4l-0.8-1.4l-0.8-1.4l-0.8-1.4l-0.8-1.4l-0.8-1.4l-0.8-1.4l-0.8-1.4l-0.8-1.4l-0.8-1.4
	l-0.8-1.4l-0.8-1.4l-0.8-1.4l-0.8-1.4l-0.8-1.4l-0.8-1.4l-0.8-1.4l-0.8-1.4l-0.8-1.4l-0.8-1.4l-0.8-1.4l-0.8-1.4l-0.8-1.4l-0.8-1.4
	l-0.8-1.4l-0.8-1.4l-0.8-1.4l-0.8-1.4L870,26l-0.8-1.4l-4.7-7.7l-4.7,7.7l-0.8,1.4l-0.8,1.4l-0.8,1.4l-0.8,1.4l-0.8,1.4l-0.8,1.4
	l-0.8,1.4l-0.8,1.4l-0.8,1.4l-0.8,1.4l-0.8,1.4l-0.8,1.4l-0.8,1.4l-0.8,1.4l-0.8,1.4l-0.8,1.4l-0.8,1.4l-0.8,1.4l-0.8,1.4l-0.8,1.4
	l-0.8,1.4l-0.8,1.4l-0.8,1.4l-0.8,1.4l-0.8,1.4l-0.8,1.4l-0.8,1.4l-0.8,1.4l-0.8,1.4l-0.8,1.4l-0.8,1.4l-0.8,1.4L832,70l-0.8,1.4
	l-0.8,1.4l-0.8,1.4l-0.8,1.4l-0.8,1.4l-0.8,1.4l-0.8,1.4l-0.8,1.4l-0.8,1.4l-0.8,1.4l-0.8,1.4l-0.8,1.4l-0.8,1.4l-0.8,1.4l-0.8,1.4
	l-0.8,1.4l-0.8,1.4l-0.8,1.4l-0.8,1.4l-0.8,1.4l-0.8,1.4l-4.2,6.6l17.6,0l0.8-1.1l0.8-1.4l0.8-1.4l0.8-1.4l0.8-1.4l0.8-1.4l0.8-1.4
	l0.8-1.4l0.8-1.4l0.8-1.4l1-1.5l54.4,0l1,1.3l0.9,1.6l0.8,1.4l0.8,1.4l0.8,1.4l0.8,1.4l0.8,1.4l0.8,1.4l0.8,1.4l0.8,1.4l0.7,1.1
	l17.6,0L917.7,104.4z M846.6,75.4l1.3-2.1l0.8-1.3l0.8-1.3l0.8-1.3l0.8-1.3l0.8-1.3l0.8-1.3l0.8-1.3l0.8-1.3l0.8-1.3l0.8-1.3
	l0.8-1.3l0.8-1.3l0.8-1.3l0.8-1.3l0.8-1.3l0.8-1.3l0.8-1.3l0.8-1.3l0.8-1.3l0.6-0.9l0.6,0.9l0.8,1.3l0.8,1.3l0.8,1.3l0.8,1.3
	l0.8,1.3l0.8,1.3l0.8,1.3l0.8,1.3l0.8,1.3l0.8,1.3l0.8,1.3l0.8,1.3l0.8,1.3l0.8,1.3l0.8,1.3l0.8,1.3l0.8,1.3l0.8,1.3l0.8,1.3
	l1.2,2.1L846.6,75.4z M789.2,41.3c0-0.5-0.1-0.9-0.1-1.3c-0.1-0.5-0.1-0.9-0.2-1.3c-0.1-0.5-0.2-0.9-0.3-1.3
	c-0.1-0.5-0.2-0.9-0.3-1.3c-0.1-0.5-0.3-0.9-0.4-1.3c-0.2-0.5-0.3-0.9-0.5-1.3c-0.2-0.5-0.4-0.9-0.6-1.3c-0.2-0.5-0.5-0.9-0.7-1.3
	c-0.3-0.5-0.5-0.9-0.8-1.3c-0.3-0.5-0.6-0.9-0.9-1.3c-0.3-0.5-0.7-0.9-1.1-1.3c-4.9-5.9-12.2-9.3-19.8-9.3h-64.2v87.4l0,0.9h15
	l0-0.9v-35l0-0.4l34.9,0l22,36.4l18.5,0L767.4,69c0,0,4-1.6,5.5-2.1c1-0.4,2-0.8,2.9-1.3c0.8-0.4,1.5-0.9,2.2-1.3
	c0.6-0.4,1.2-0.9,1.8-1.3c0.5-0.4,1-0.9,1.5-1.3c0.5-0.4,0.9-0.9,1.3-1.3c0.4-0.4,0.8-0.9,1.1-1.3c0.3-0.4,0.7-0.9,1-1.3
	c0.3-0.4,0.6-0.9,0.9-1.3c0.3-0.4,0.5-0.9,0.7-1.3c0.2-0.4,0.4-0.9,0.7-1.3c0.2-0.4,0.4-0.9,0.6-1.3c0.2-0.4,0.3-0.9,0.5-1.3
	c0.1-0.4,0.3-0.9,0.4-1.3c0.1-0.4,0.2-0.9,0.3-1.3c0.1-0.4,0.2-0.9,0.2-1.3c0.1-0.4,0.1-0.9,0.2-1.3c0-0.4,0.1-0.9,0.1-1.3
	c0-0.4,0-0.7,0-1.1c0-0.1,0-0.2,0-0.3C789.2,42.1,789.2,41.7,789.2,41.3z M774.2,43.9c-0.2,2-0.9,3.8-2.1,5.4
	c-0.4,0.5-0.8,0.9-1.2,1.3c-0.5,0.5-1.1,1-1.7,1.4c-0.9,0.6-1.9,1.2-3,1.6c-0.9,0.4-1.9,0.6-2.8,0.6h-49.3l0.1-0.9V32h49.2
	c1.7,0,3.4,0.4,4.9,1.2c2.2,1.2,4,3.1,5.1,5.4c0.5,1.3,0.8,2.7,0.9,4c0,0.1,0,0.2,0,0.3C774.3,43.2,774.3,43.6,774.2,43.9z
	 M333.4,79.1c0,0.2,0,0.5,0,0.7c0,0.2,0,0.4,0,0.6c0,0.5,0,0.9-0.1,1.3c0,0.5-0.1,0.9-0.1,1.3c-0.1,0.5-0.1,0.9-0.2,1.3
	c-0.1,0.5-0.2,0.9-0.3,1.3c-0.1,0.5-0.2,0.9-0.4,1.3c-0.1,0.5-0.3,0.9-0.4,1.3c-0.2,0.5-0.3,0.9-0.5,1.3c-0.2,0.5-0.4,0.9-0.6,1.3
	c-0.2,0.5-0.5,0.9-0.7,1.3c-0.3,0.5-0.5,0.9-0.8,1.3c-0.3,0.5-0.6,0.9-0.9,1.3c-0.4,0.5-0.7,0.9-1.1,1.3c-0.4,0.5-0.8,0.9-1.3,1.3
	c-0.5,0.5-1,0.9-1.5,1.3c-0.6,0.5-1.1,0.9-1.7,1.3c-0.7,0.5-1.4,0.9-2.1,1.3c-0.9,0.5-1.8,1-2.7,1.3c-1.3,0.6-2.7,1-4.1,1.3
	c-2.1,0.5-4.3,0.8-6.6,0.8l-63.5-0.2l8.9-14.7l55,0.2c2.3,0,4.6-0.8,6.5-2.2c1.4-1,2.6-2.4,3.3-4c0.6-1.3,1-2.6,1-4
	c0-0.2,0-0.4,0-0.6c0-0.2,0-0.5,0-0.7c-0.3-4.2-3-7.9-6.9-9.4c-1.3-0.4-2.6-0.6-3.9-0.5l-38.2,0.1c-1.9-0.1-3.8-0.3-5.7-0.7
	c-1.5-0.4-2.9-0.9-4.3-1.5c-0.9-0.4-1.8-0.9-2.7-1.4c-0.7-0.4-1.4-0.9-2-1.4c-0.6-0.4-1.2-0.9-1.7-1.4c-0.5-0.4-1-0.9-1.5-1.3
	c-0.4-0.4-0.9-0.9-1.3-1.3c-0.4-0.4-0.8-0.9-1.1-1.3c-0.3-0.4-0.7-0.9-1-1.3c-0.3-0.4-0.6-0.9-0.8-1.3c-0.3-0.4-0.5-0.9-0.7-1.3
	c-0.2-0.4-0.4-0.9-0.6-1.3c-0.2-0.4-0.4-0.9-0.6-1.3c-0.2-0.4-0.3-0.9-0.5-1.3c-0.1-0.4-0.3-0.9-0.4-1.3c-0.1-0.4-0.2-0.9-0.3-1.3
	c-0.1-0.4-0.2-0.9-0.2-1.3c-0.1-0.4-0.1-0.9-0.2-1.3c0-0.4-0.1-0.9-0.1-1.3c0-0.3,0-0.6,0-1c0-0.1,0-0.3,0-0.4c0-0.5,0-0.9,0.1-1.3
	c0-0.5,0.1-0.9,0.1-1.3c0.1-0.5,0.1-0.9,0.2-1.3c0.1-0.5,0.2-0.9,0.3-1.3c0.1-0.5,0.2-0.9,0.3-1.3c0.1-0.5,0.3-0.9,0.4-1.3
	c0.2-0.5,0.3-0.9,0.5-1.3c0.2-0.5,0.4-0.9,0.6-1.3c0.2-0.5,0.5-0.9,0.7-1.3c0.3-0.5,0.5-0.9,0.8-1.3c0.3-0.5,0.6-0.9,0.9-1.3
	c0.3-0.5,0.7-0.9,1.1-1.3c4.9-5.9,12.1-9.3,19.8-9.3l64.1-0.1l-9.4,15.1l-54.7,0c-2.5,0-4.9,0.9-6.8,2.4c-1.3,1.1-2.4,2.5-3.1,4
	c-0.6,1.3-0.9,2.6-0.9,4c0,0.1,0,0.3,0,0.4c0,0.3,0,0.6,0,1c0,0.5,0.1,0.9,0.2,1.3c0.2,0.9,0.5,1.8,1,2.7c0.8,1.6,2.1,3,3.6,4
	c0.8,0.6,1.7,1.1,2.6,1.5c1.1,0.5,2.2,0.8,3.4,0.9l38.1,0c2.2,0,4.4,0.2,6.6,0.4c1.4,0.2,2.7,0.6,3.9,1.2c0.9,0.4,1.8,0.8,2.6,1.3
	c0.7,0.4,1.4,0.9,2.1,1.3c0.6,0.4,1.2,0.9,1.7,1.3c0.5,0.4,1,0.9,1.5,1.3c0.4,0.4,0.8,0.9,1.2,1.3c0.4,0.4,0.7,0.9,1.1,1.3
	c0.3,0.4,0.6,0.9,0.9,1.3c0.3,0.4,0.6,0.9,0.8,1.3c0.3,0.4,0.5,0.9,0.7,1.3c0.2,0.4,0.4,0.9,0.6,1.3c0.2,0.4,0.4,0.9,0.5,1.3
	c0.2,0.4,0.3,0.9,0.4,1.3c0.1,0.4,0.3,0.9,0.4,1.3c0.1,0.4,0.2,0.9,0.3,1.3c0.1,0.4,0.2,0.9,0.2,1.3c0.1,0.4,0.1,0.9,0.1,1.3
	C333.3,78.2,333.3,78.6,333.4,79.1z M652.8,32.3l-65.3,0l0-15.1l74.2,0L652.8,32.3z M500.6,90.6l60,0l-9.3,14.7l-65.6,0V17.2h14.9
	v72.6L500.6,90.6z M453,42.9c0,0.2,0,0.4,0,0.6v6.1c0,1.7,0,3.3,0,5h-14.9V51l0,0v-7.6c0-0.2,0-0.4,0-0.6c-0.1-2.5-1.1-4.8-2.7-6.7
	c-0.9-1.1-2.1-2-3.4-2.7c-1.6-0.8-3.4-1.3-5.2-1.3h-37.4c-1.8,0-3.6,0.4-5.3,1.3c-2.2,1.2-4,3.1-5.1,5.4c-0.2,0.4-0.4,0.9-0.5,1.3
	c-0.1,0.4-0.2,0.9-0.3,1.3c-0.1,0.4-0.1,0.9-0.1,1.3c0,0.2,0,0.4,0,0.6v3h0v8.1h-14.9c0-1.7,0-3.3,0-5v-6.1c0-0.2,0-0.4,0-0.6
	c0-0.5,0-0.9,0.1-1.3c0-0.5,0.1-0.9,0.1-1.3c0.1-0.5,0.1-0.9,0.2-1.3c0.1-0.5,0.2-0.9,0.3-1.3c0.1-0.5,0.2-0.9,0.4-1.3
	c0.1-0.5,0.3-0.9,0.4-1.3c0.2-0.5,0.3-0.9,0.5-1.3c0.2-0.5,0.4-0.9,0.6-1.3c0.2-0.5,0.5-0.9,0.7-1.3c0.3-0.5,0.5-0.9,0.8-1.3
	c0.3-0.5,0.6-0.9,0.9-1.3c0.3-0.5,0.7-0.9,1-1.3c5-6,12.4-9.5,20.1-9.5h37.4c7.8,0,15.2,3.5,20.1,9.5c0.4,0.4,0.7,0.9,1,1.3
	c0.3,0.4,0.6,0.9,0.9,1.3c0.3,0.4,0.6,0.9,0.8,1.3c0.2,0.4,0.5,0.9,0.7,1.3c0.2,0.4,0.4,0.9,0.6,1.3c0.2,0.4,0.4,0.9,0.5,1.3
	c0.2,0.4,0.3,0.9,0.4,1.3c0.1,0.4,0.2,0.9,0.4,1.3c0.1,0.4,0.2,0.9,0.3,1.3c0.1,0.4,0.1,0.9,0.2,1.3c0.1,0.4,0.1,0.9,0.1,1.3
	C453,42,453,42.4,453,42.9z M453,73L453,73l0,6.2c0,0,0,0,0,0.1c0,0.5,0,0.9,0,1.3c0,0.5-0.1,0.9-0.1,1.3c0,0.5-0.1,0.9-0.2,1.3
	c-0.1,0.5-0.2,0.9-0.2,1.3c-0.1,0.5-0.2,0.9-0.3,1.3c-0.1,0.5-0.3,0.9-0.4,1.3c-0.1,0.5-0.3,0.9-0.5,1.3c-0.2,0.5-0.4,0.9-0.6,1.3
	c-0.2,0.5-0.4,0.9-0.7,1.3c-0.2,0.5-0.5,0.9-0.8,1.3c-0.3,0.5-0.6,0.9-0.9,1.3c-0.3,0.5-0.7,0.9-1,1.3c-0.4,0.5-0.7,0.9-1.1,1.3
	c-0.4,0.5-0.9,0.9-1.3,1.3c-0.5,0.5-1,0.9-1.5,1.3c-0.6,0.5-1.2,0.9-1.8,1.3c-0.7,0.5-1.4,0.9-2.2,1.3c-3.9,2.1-8.2,3.3-12.7,3.3
	h-37.4c-1.8,0-3.7-0.2-5.5-0.6c-2.5-0.5-5-1.4-7.2-2.7c-0.7-0.4-1.5-0.9-2.2-1.3c-0.6-0.4-1.2-0.9-1.8-1.3c-0.5-0.4-1-0.9-1.5-1.3
	c-0.5-0.4-0.9-0.9-1.3-1.3c-0.4-0.4-0.8-0.9-1.1-1.3c-0.3-0.4-0.7-0.9-1-1.3c-0.3-0.4-0.6-0.9-0.9-1.3c-0.3-0.4-0.5-0.9-0.8-1.3
	c-0.2-0.4-0.5-0.9-0.7-1.3c-0.2-0.4-0.4-0.9-0.6-1.3c-0.2-0.4-0.3-0.9-0.5-1.3c-0.1-0.4-0.3-0.9-0.4-1.3c-0.1-0.4-0.2-0.9-0.3-1.3
	c-0.1-0.4-0.2-0.9-0.2-1.3c-0.1-0.4-0.1-0.9-0.2-1.3c0-0.4-0.1-0.9-0.1-1.3c0-0.4,0-0.8,0-1.3V73c0-1.2,0-2.4,0-3.6h14.9V73h0v6.4
	c0,0.4,0,0.8,0.1,1.3c0.2,1.4,0.6,2.8,1.3,4c2,3.7,5.8,6,10,6h37.4c2.3,0,4.5-0.7,6.3-2c1.9-1.3,3.4-3.2,4.2-5.4
	c0.3-0.9,0.5-1.8,0.7-2.7c0-0.4,0.1-0.8,0.1-1.3v-10H453V73z M602.5,90.8l63.6,0l-9.1,14.6l-69.5,0l0-0.7V54.1l-0.1-7.1l69.4,0l0,15
	l-54.4,0l0,6.9L602.5,90.8L602.5,90.8z M118.1,24.6H106l14.7-14.7l18.9,0h0.1l0,0C136.7,18.6,127.9,24.6,118.1,24.6z M139.5,99.1
	h12.1l-14.7,14.7l-18.9,0h-0.1l0,0C121,105.1,129.7,99.1,139.5,99.1z M122.1,76.8h51.9L159,91.5l-52.3,0h-0.2
	C106.6,83.4,113.5,76.8,122.1,76.8z M135.6,46.9H83.7l14.7-14.7l52.5,0h0.1C151.1,40.3,144.1,46.9,135.6,46.9z M76.1,54.5l119.7,0.1
	l-14.4,14.6h-1.4l-118.7,0L76.1,54.5z"/>
</svg>
