<?xml version="1.0" encoding="UTF-8" standalone="no"?>
<!DOCTYPE svg PUBLIC "-//W3C//DTD SVG 1.1//EN" "http://www.w3.org/Graphics/SVG/1.1/DTD/svg11.dtd">
<svg width="100%" height="100%" viewBox="0 0 869 140" version="1.1" xmlns="http://www.w3.org/2000/svg" xmlns:xlink="http://www.w3.org/1999/xlink" xml:space="preserve" xmlns:serif="http://www.serif.com/" style="fill-rule:evenodd;clip-rule:evenodd;stroke-linejoin:round;stroke-miterlimit:2;">
    <g id="Artboard1" transform="matrix(0.985953,0,0,0.99249,-43.3457,5.31116)">
        <rect x="43.963" y="-5.351" width="880.75" height="140.598" style="fill:none;"/>
        <g transform="matrix(1.01425,0,0,1.00757,-12.198,-0.369807)">
            <path d="M917.7,104.4L872.9,26L870,26L869.2,24.6L864.5,16.9L859.8,24.6L834.2,69.4L832,70L815.2,99.4L811,106L828.6,106L829.4,104.9L836.6,92.3L837.6,90.8L892,90.8L893,92.1L893.9,93.7L900.3,104.9L901,106L918.6,106L917.7,104.4ZM846.6,75.4L847.9,73.3L863.1,48.6L863.7,47.7L864.3,48.6L879.5,73.3L880.7,75.4L846.6,75.4ZM789.2,41.3C789.2,40.8 789.1,40.4 789.1,40C789,39.5 789,39.1 788.9,38.7C788.8,38.2 788.7,37.8 788.6,37.4C788.5,36.9 788.4,36.5 788.3,36.1C788.2,35.6 788,35.2 787.9,34.8C787.7,34.3 787.6,33.9 787.4,33.5C787.2,33 787,32.6 786.8,32.2C786.6,31.7 786.3,31.3 786.1,30.9C785.8,30.4 785.6,30 785.3,29.6C785,29.1 784.7,28.7 784.4,28.3C784.1,27.8 783.7,27.4 783.3,27C778.4,21.1 771.1,17.7 763.5,17.7L699.3,17.7L699.3,106L714.3,106L714.3,69.7L749.2,69.7L771.2,106.1L789.7,106.1L767.4,69C767.4,69 771.4,67.4 772.9,66.9C773.9,66.5 774.9,66.1 775.8,65.6C776.6,65.2 777.3,64.7 778,64.3C778.6,63.9 779.2,63.4 779.8,63C780.3,62.6 780.8,62.1 781.3,61.7C781.8,61.3 782.2,60.8 782.6,60.4C783,60 783.4,59.5 783.7,59.1C784,58.7 784.4,58.2 784.7,57.8C785,57.4 785.3,56.9 785.6,56.5C785.9,56.1 786.1,55.6 786.3,55.2C786.5,54.8 786.7,54.3 787,53.9C787.2,53.5 787.4,53 787.6,52.6C787.8,52.2 787.9,51.7 788.1,51.3C788.2,50.9 788.4,50.4 788.5,50C788.6,49.6 788.7,49.1 788.8,48.7C788.9,48.3 789,47.8 789,47.4C789.1,47 789.1,46.5 789.2,46.1C789.2,45.7 789.3,45.2 789.3,44.8L789.3,43.4C789.2,42.1 789.2,41.7 789.2,41.3ZM774.2,43.9C774,45.9 773.3,47.7 772.1,49.3C771.7,49.8 771.3,50.2 770.9,50.6C770.4,51.1 769.8,51.6 769.2,52C768.3,52.6 767.3,53.2 766.2,53.6C765.3,54 764.3,54.2 763.4,54.2L714.1,54.2L714.2,53.3L714.2,32L763.4,32C765.1,32 766.8,32.4 768.3,33.2C770.5,34.4 772.3,36.3 773.4,38.6C773.9,39.9 774.2,41.3 774.3,42.6L774.3,42.9C774.3,43.2 774.3,43.6 774.2,43.9ZM333.4,79.1L333.4,80.4C333.4,80.9 333.4,81.3 333.3,81.7C333.3,82.2 333.2,82.6 333.2,83C333.1,83.5 333.1,83.9 333,84.3C332.9,84.8 332.8,85.2 332.7,85.6C332.6,86.1 332.5,86.5 332.3,86.9C332.2,87.4 332,87.8 331.9,88.2C331.7,88.7 331.6,89.1 331.4,89.5C331.2,90 331,90.4 330.8,90.8C330.6,91.3 330.3,91.7 330.1,92.1C329.8,92.6 329.6,93 329.3,93.4C329,93.9 328.7,94.3 328.4,94.7C328,95.2 327.7,95.6 327.3,96C326.9,96.5 326.5,96.9 326,97.3C325.5,97.8 325,98.2 324.5,98.6C323.9,99.1 323.4,99.5 322.8,99.9C322.1,100.4 321.4,100.8 320.7,101.2C319.8,101.7 318.9,102.2 318,102.5C316.7,103.1 315.3,103.5 313.9,103.8C311.8,104.3 309.6,104.6 307.3,104.6L243.8,104.4L252.7,89.7L307.7,89.9C310,89.9 312.3,89.1 314.2,87.7C315.6,86.7 316.8,85.3 317.5,83.7C318.1,82.4 318.5,81.1 318.5,79.7L318.5,78.4C318.2,74.2 315.5,70.5 311.6,69C310.3,68.6 309,68.4 307.7,68.5L269.5,68.6C267.6,68.5 265.7,68.3 263.8,67.9C262.3,67.5 260.9,67 259.5,66.4C258.6,66 257.7,65.5 256.8,65C256.1,64.6 255.4,64.1 254.8,63.6C254.2,63.2 253.6,62.7 253.1,62.2C252.6,61.8 252.1,61.3 251.6,60.9C251.2,60.5 250.7,60 250.3,59.6C249.9,59.2 249.5,58.7 249.2,58.3C248.9,57.9 248.5,57.4 248.2,57C247.9,56.6 247.6,56.1 247.4,55.7C247.1,55.3 246.9,54.8 246.7,54.4C246.5,54 246.3,53.5 246.1,53.1C245.9,52.7 245.7,52.2 245.5,51.8C245.3,51.4 245.2,50.9 245,50.5C244.9,50.1 244.7,49.6 244.6,49.2C244.5,48.8 244.4,48.3 244.3,47.9C244.2,47.5 244.1,47 244.1,46.6C244,46.2 244,45.7 243.9,45.3C243.9,44.9 243.8,44.4 243.8,44L243.8,42.6C243.8,42.1 243.8,41.7 243.9,41.3C243.9,40.8 244,40.4 244,40C244.1,39.5 244.1,39.1 244.2,38.7C244.3,38.2 244.4,37.8 244.5,37.4C244.6,36.9 244.7,36.5 244.8,36.1C244.9,35.6 245.1,35.2 245.2,34.8C245.4,34.3 245.5,33.9 245.7,33.5C245.9,33 246.1,32.6 246.3,32.2C246.5,31.7 246.8,31.3 247,30.9C247.3,30.4 247.5,30 247.8,29.6C248.1,29.1 248.4,28.7 248.7,28.3C249,27.8 249.4,27.4 249.8,27C254.7,21.1 261.9,17.7 269.6,17.7L333.7,17.6L324.3,32.7L269.6,32.7C267.1,32.7 264.7,33.6 262.8,35.1C261.5,36.2 260.4,37.6 259.7,39.1C259.1,40.4 258.8,41.7 258.8,43.1L258.8,44.5C258.8,45 258.9,45.4 259,45.8C259.2,46.7 259.5,47.6 260,48.5C260.8,50.1 262.1,51.5 263.6,52.5C264.4,53.1 265.3,53.6 266.2,54C267.3,54.5 268.4,54.8 269.6,54.9L307.7,54.9C309.9,54.9 312.1,55.1 314.3,55.3C315.7,55.5 317,55.9 318.2,56.5C319.1,56.9 320,57.3 320.8,57.8C321.5,58.2 322.2,58.7 322.9,59.1C323.5,59.5 324.1,60 324.6,60.4C325.1,60.8 325.6,61.3 326.1,61.7C326.5,62.1 326.9,62.6 327.3,63C327.7,63.4 328,63.9 328.4,64.3C328.7,64.7 329,65.2 329.3,65.6C329.6,66 329.9,66.5 330.1,66.9C330.4,67.3 330.6,67.8 330.8,68.2C331,68.6 331.2,69.1 331.4,69.5C331.6,69.9 331.8,70.4 331.9,70.8C332.1,71.2 332.2,71.7 332.3,72.1C332.4,72.5 332.6,73 332.7,73.4C332.8,73.8 332.9,74.3 333,74.7C333.1,75.1 333.2,75.6 333.2,76C333.3,76.4 333.3,76.9 333.3,77.3C333.3,78.2 333.3,78.6 333.4,79.1ZM652.8,32.3L587.5,32.3L587.5,17.2L661.7,17.2L652.8,32.3ZM500.6,90.6L560.6,90.6L551.3,105.3L485.7,105.3L485.7,17.2L500.6,17.2L500.6,90.6ZM453,42.9L453,54.6L438.1,54.6L438.1,42.8C438,40.3 437,38 435.4,36.1C434.5,35 433.3,34.1 432,33.4C430.4,32.6 428.6,32.1 426.8,32.1L389.4,32.1C387.6,32.1 385.8,32.5 384.1,33.4C381.9,34.6 380.1,36.5 379,38.8C378.8,39.2 378.6,39.7 378.5,40.1C378.4,40.5 378.3,41 378.2,41.4C378.1,41.8 378.1,42.3 378.1,42.7L378.1,54.4L363.2,54.4L363.2,42.7C363.2,42.2 363.2,41.8 363.3,41.4C363.3,40.9 363.4,40.5 363.4,40.1C363.5,39.6 363.5,39.2 363.6,38.8C363.7,38.3 363.8,37.9 363.9,37.5C364,37 364.1,36.6 364.3,36.2C364.4,35.7 364.6,35.3 364.7,34.9C364.9,34.4 365,34 365.2,33.6C365.4,33.1 365.6,32.7 365.8,32.3C366,31.8 366.3,31.4 366.5,31C366.8,30.5 367,30.1 367.3,29.7C367.6,29.2 367.9,28.8 368.2,28.4C368.5,27.9 368.9,27.5 369.2,27.1C374.2,21.1 381.6,17.6 389.3,17.6L426.7,17.6C434.5,17.6 441.9,21.1 446.8,27.1C447.2,27.5 447.5,28 447.8,28.4C448.1,28.8 448.4,29.3 448.7,29.7C449,30.1 449.3,30.6 449.5,31C449.7,31.4 450,31.9 450.2,32.3C450.4,32.7 450.6,33.2 450.8,33.6C451,34 451.2,34.5 451.3,34.9C451.5,35.3 451.6,35.8 451.7,36.2C451.8,36.6 451.9,37.1 452.1,37.5C452.2,37.9 452.3,38.4 452.4,38.8C452.5,39.2 452.5,39.7 452.6,40.1C452.7,40.5 452.7,41 452.7,41.4C453,42 453,42.4 453,42.9ZM453,69.3L453,80.6C453,81.1 452.9,81.5 452.9,81.9C452.9,82.4 452.8,82.8 452.7,83.2C452.6,83.7 452.5,84.1 452.5,84.5C452.4,85 452.3,85.4 452.2,85.8C452.1,86.3 451.9,86.7 451.8,87.1C451.7,87.6 451.5,88 451.3,88.4C451.1,88.9 450.9,89.3 450.7,89.7C450.5,90.2 450.3,90.6 450,91C449.8,91.5 449.5,91.9 449.2,92.3C448.9,92.8 448.6,93.2 448.3,93.6C448,94.1 447.6,94.5 447.3,94.9C446.9,95.4 446.6,95.8 446.2,96.2C445.8,96.7 445.3,97.1 444.9,97.5C444.4,98 443.9,98.4 443.4,98.8C442.8,99.3 442.2,99.7 441.6,100.1C440.9,100.6 440.2,101 439.4,101.4C435.5,103.5 431.2,104.7 426.7,104.7L389.3,104.7C387.5,104.7 385.6,104.5 383.8,104.1C381.3,103.6 378.8,102.7 376.6,101.4C375.9,101 375.1,100.5 374.4,100.1C373.8,99.7 373.2,99.2 372.6,98.8C372.1,98.4 371.6,97.9 371.1,97.5C370.6,97.1 370.2,96.6 369.8,96.2C369.4,95.8 369,95.3 368.7,94.9C368.4,94.5 368,94 367.7,93.6C367.4,93.2 367.1,92.7 366.8,92.3C366.5,91.9 366.3,91.4 366,91C365.8,90.6 365.5,90.1 365.3,89.7C365.1,89.3 364.9,88.8 364.7,88.4C364.5,88 364.4,87.5 364.2,87.1C364.1,86.7 363.9,86.2 363.8,85.8C363.7,85.4 363.6,84.9 363.5,84.5C363.4,84.1 363.3,83.6 363.3,83.2C363.2,82.8 363.2,82.3 363.1,81.9C363.1,81.5 363,81 363,80.6L363,69.4L377.9,69.4L377.9,79.4C377.9,79.8 377.9,80.2 378,80.7C378.2,82.1 378.6,83.5 379.3,84.7C381.3,88.4 385.1,90.7 389.3,90.7L426.7,90.7C429,90.7 431.2,90 433,88.7C434.9,87.4 436.4,85.5 437.2,83.3C437.5,82.4 437.7,81.5 437.9,80.6C437.9,80.2 438,79.8 438,79.3L438,69.3L453,69.3ZM602.5,90.8L666.1,90.8L657,105.4L587.5,105.4L587.5,54.1L587.4,47L656.8,47L656.8,62L602.4,62L602.4,68.9L602.5,90.8ZM118.1,24.6L106,24.6L120.7,9.9L139.7,9.9C136.7,18.6 127.9,24.6 118.1,24.6ZM139.5,99.1L151.6,99.1L136.9,113.8L117.9,113.8C121,105.1 129.7,99.1 139.5,99.1ZM122.1,76.8L174,76.8L159,91.5L106.5,91.5C106.6,83.4 113.5,76.8 122.1,76.8ZM135.6,46.9L83.7,46.9L98.4,32.2L151,32.2C151.1,40.3 144.1,46.9 135.6,46.9ZM76.1,54.5L195.8,54.6L181.4,69.2L61.3,69.2L76.1,54.5Z" style="fill:url(#_Linear1);fill-rule:nonzero;"/>
        </g>
    </g>
    <defs>
        <linearGradient id="_Linear1" x1="0" y1="0" x2="1" y2="0" gradientUnits="userSpaceOnUse" gradientTransform="matrix(6.37192e-15,104.061,-104.061,6.37192e-15,489.913,9.824)"><stop offset="0" style="stop-color:rgb(46,47,120);stop-opacity:1"/><stop offset="0.11" style="stop-color:rgb(46,47,120);stop-opacity:1"/><stop offset="1" style="stop-color:rgb(105,44,130);stop-opacity:1"/></linearGradient>
    </defs>
</svg>
